<?xml version="1.0" standalone="no"?><!DOCTYPE svg PUBLIC "-//W3C//DTD SVG 1.1//EN" "http://www.w3.org/Graphics/SVG/1.1/DTD/svg11.dtd"><svg t="1641727240103" class="icon" viewBox="0 0 1024 1024" version="1.1" xmlns="http://www.w3.org/2000/svg" p-id="5962" xmlns:xlink="http://www.w3.org/1999/xlink" width="200" height="200"><defs><style type="text/css"></style></defs><path d="M552.106667 125.44a245.034667 245.034667 0 1 1 346.453333 346.453333l-113.834667 113.877334a300.714667 300.714667 0 0 0-16.938666-164.053334l40.277333-40.32a117.034667 117.034667 0 1 0-165.461333-165.461333l-170.666667 170.666667a117.034667 117.034667 0 0 0 38.4 191.061333l-93.994667 93.994667a245.034667 245.034667 0 0 1-34.986666-375.552l170.709333-170.666667z m-426.666667 426.666667l113.834667-113.877334a300.544 300.544 0 0 0 16.938666 164.053334l-40.277333 40.32a117.034667 117.034667 0 1 0 165.461333 165.461333l170.666667-170.666667a116.992 116.992 0 0 0-24.106667-184.021333L619.946667 361.386667a245.034667 245.034667 0 0 1 22.613333 366.506666l-170.666667 170.666667a245.034667 245.034667 0 0 1-346.453333-346.453333z" p-id="5963" fill="#2c2c2c"></path></svg>