<svg xmlns="http://www.w3.org/2000/svg" xmlns:xlink="http://www.w3.org/1999/xlink" viewBox="0 0 100 100"><defs><style>.cls-1{fill:url(#未命名的渐变_15);}.cls-2{fill:#fff;}</style><linearGradient id="未命名的渐变_15" x1="-4.93" y1="69.99" x2="104.93" y2="30.01" gradientUnits="userSpaceOnUse"><stop offset="0" stop-color="#ffc35a"/><stop offset="1" stop-color="#ff9a32"/></linearGradient></defs><g id="图层_2" data-name="图层 2"><g id="图层_3" data-name="图层 3"><rect class="cls-1" width="100" height="100" rx="20"/><path class="cls-2" d="M50.41,21a2.79,2.79,0,0,0-2.68,2l-3,8.4c1.29,1.39,3.76,1.66,5.69,1.66s4.4-.27,5.71-1.66l-3-8.4a2.83,2.83,0,0,0-2.68-2M40.86,42.21,37,52.94c2.87,3.65,8.74,4.26,13.41,4.26S61,56.59,63.82,52.94L60,42.21c-2.15,2.47-6.23,2.93-9.55,2.93s-7.4-.46-9.55-2.93m-8,16.34a5.69,5.69,0,0,0-5.13,3.86L23.75,76.14A2.85,2.85,0,0,0,26.62,80h47.6a2.85,2.85,0,0,0,2.85-3.86L73.12,62.41A5.67,5.67,0,0,0,68,58.55H65.83l.91,2.6a2.94,2.94,0,0,1,0,2.68c-3.35,4.64-10.59,5.44-16.33,5.44s-13-.8-16.33-5.44a2.91,2.91,0,0,1,0-2.68l.91-2.6Z"/></g></g></svg>