<svg xmlns="http://www.w3.org/2000/svg" xmlns:xlink="http://www.w3.org/1999/xlink" viewBox="0 0 100 100"><defs><style>.cls-1{fill:url(#未命名的渐变_6)}.cls-2{fill:#fff}.cls-3{fill:#7ebbff}.cls-4{fill:url(#未命名的渐变_6-2)}</style><linearGradient id="未命名的渐变_6" x1="-4.93" x2="104.93" y1="69.99" y2="30.01" gradientUnits="userSpaceOnUse"><stop offset="0" stop-color="#86c3ff"/><stop offset="1" stop-color="#6dadff"/></linearGradient><linearGradient id="未命名的渐变_6-2" x1="38.57" x2="65.26" y1="47.16" y2="47.16" xlink:href="#未命名的渐变_6"/></defs><g id="图层_2" data-name="图层 2"><g id="图层_1-2" data-name="图层 1"><rect width="100" height="100" class="cls-1" rx="20"/><path d="M47.5,21H67A10,10,0,0,1,77,31V70A10,10,0,0,1,67,80H47.5A29.5,29.5,0,0,1,18,50.5v0A29.5,29.5,0,0,1,47.5,21Z" class="cls-2"/><path d="M40.51,66.83a1,1,0,0,1,.29-.7,1,1,0,0,1,.33-.23,1.07,1.07,0,0,1,.39-.07.84.84,0,0,1,.38.08,1,1,0,0,1,.31.21,1.09,1.09,0,0,1,.23.33l1.26,3,1-3.21a.55.55,0,0,1,.69-.37.53.53,0,0,1,.33.27.56.56,0,0,1,0,.42L44.3,71.21a1.08,1.08,0,0,1-.18.49,1,1,0,0,1-.42.33.92.92,0,0,1-.39.09,1,1,0,0,1-.38-.08.84.84,0,0,1-.33-.21,1,1,0,0,1-.22-.33l-1.19-2.86-1.33,2.57a1,1,0,0,1-.68.81.84.84,0,0,1-.39.06,1.21,1.21,0,0,1-.37-.11,1.13,1.13,0,0,1-.3-.24.89.89,0,0,1-.18-.35l-1.42-4.33a1,1,0,0,1,0-.39.88.88,0,0,1,.1-.36.86.86,0,0,1,.23-.3.94.94,0,0,1,.35-.2,1,1,0,0,1,.76.07.94.94,0,0,1,.5.57l1,3.17,1.18-2.32,0-.07A.91.91,0,0,1,40.51,66.83Z" class="cls-3"/><path d="M51.08,66.83a1.23,1.23,0,0,1,.08-.38,1,1,0,0,1,.54-.55,1.07,1.07,0,0,1,.39-.07.84.84,0,0,1,.38.08,1.11,1.11,0,0,1,.32.21,1.27,1.27,0,0,1,.22.33l1.26,3,1-3.21a.5.5,0,0,1,.27-.33.53.53,0,0,1,.41,0,.53.53,0,0,1,.33.27.56.56,0,0,1,0,.42l-1.46,4.64a1.08,1.08,0,0,1-.18.49,1,1,0,0,1-.42.33.92.92,0,0,1-.39.09A1,1,0,0,1,53.5,72a.75.75,0,0,1-.32-.21A.86.86,0,0,1,53,71.5l-1.19-2.86-1.33,2.57a1,1,0,0,1-.67.81.89.89,0,0,1-.39.06A1.19,1.19,0,0,1,49,72a1.13,1.13,0,0,1-.3-.24.89.89,0,0,1-.18-.35l-1.42-4.33a1,1,0,0,1,0-.39,1.07,1.07,0,0,1,.1-.36.89.89,0,0,1,.24-.3.9.9,0,0,1,.34-.2,1,1,0,0,1,.76.07.94.94,0,0,1,.5.57l1,3.17,1.19-2.32,0-.07A.91.91,0,0,1,51.08,66.83Z" class="cls-3"/><path d="M61.65,66.83a1.23,1.23,0,0,1,.08-.38,1,1,0,0,1,.54-.55,1.07,1.07,0,0,1,.39-.07.84.84,0,0,1,.38.08,1,1,0,0,1,.32.21,1.27,1.27,0,0,1,.22.33l1.26,3,1-3.21a.56.56,0,0,1,.27-.33.53.53,0,0,1,.41,0,.53.53,0,0,1,.33.27.56.56,0,0,1,0,.42l-1.46,4.64a1.08,1.08,0,0,1-.18.49.87.87,0,0,1-.42.33.92.92,0,0,1-.39.09,1,1,0,0,1-.38-.08.75.75,0,0,1-.32-.21,1,1,0,0,1-.23-.33l-1.19-2.86L61,71.21a.92.92,0,0,1-.2.49,1,1,0,0,1-.47.32.89.89,0,0,1-.39.06,1.14,1.14,0,0,1-.37-.11.89.89,0,0,1-.3-.24.79.79,0,0,1-.19-.35l-1.42-4.33a1,1,0,0,1,0-.39,1.07,1.07,0,0,1,.1-.36A.89.89,0,0,1,58,66a.9.9,0,0,1,.34-.2,1,1,0,0,1,.76.07.92.92,0,0,1,.5.57l1,3.17,1.19-2.32,0-.07A1.09,1.09,0,0,1,61.65,66.83Z" class="cls-3"/><path d="M48.45,60.66,62,52.85a6.58,6.58,0,0,0,0-11.39L48.44,33.65a6.58,6.58,0,0,0-9.87,5.7V55A6.59,6.59,0,0,0,48.45,60.66Z" class="cls-4"/></g></g></svg>