<?xml version="1.0" standalone="no"?><!DOCTYPE svg PUBLIC "-//W3C//DTD SVG 1.1//EN" "http://www.w3.org/Graphics/SVG/1.1/DTD/svg11.dtd"><svg t="1650286016050" class="icon" viewBox="0 0 1024 1024" version="1.1" xmlns="http://www.w3.org/2000/svg" p-id="8221" xmlns:xlink="http://www.w3.org/1999/xlink" width="200" height="200"><defs><style type="text/css"></style></defs><path d="M512 22C241.38 22 22 241.38 22 512s219.38 490 490 490 490-219.38 490-490S782.62 22 512 22z m198.12 541.35l-173.9 173.91c-0.78 1-1.61 1.97-2.53 2.88-5.99 5.99-13.84 8.95-21.69 8.91-7.84 0.05-15.7-2.92-21.69-8.91-0.92-0.92-1.76-1.88-2.53-2.88l-173.9-173.9c-11.88-11.88-11.88-31.14 0-43.02 11.88-11.88 31.14-11.88 43.03 0L481.58 645V305.37c0-16.8 13.62-30.42 30.42-30.42 16.8 0 30.42 13.62 30.42 30.42V645L667.1 520.33c11.88-11.88 31.14-11.88 43.03 0 11.88 11.88 11.88 31.14-0.01 43.02z" p-id="8222" fill="#2c2c2c"></path></svg>