<svg xmlns="http://www.w3.org/2000/svg" xmlns:xlink="http://www.w3.org/1999/xlink" viewBox="0 0 100 100"><defs><style>.cls-1{fill:url(#未命名的渐变_20)}.cls-2{fill:#fff;stroke:#fff;stroke-miterlimit:10;stroke-width:2px}</style><linearGradient id="未命名的渐变_20" x1="-4.93" x2="104.93" y1="69.99" y2="30.01" gradientUnits="userSpaceOnUse"><stop offset="0" stop-color="#ffb1b5"/><stop offset="1" stop-color="#ff667e"/></linearGradient></defs><g id="图层_2" data-name="图层 2"><g id="图层_5" data-name="图层 5"><rect width="100" height="100" class="cls-1" rx="20"/><path d="M51.86,61.86,40,73.7A8.67,8.67,0,1,1,27.76,61.45L39.6,49.61a2.39,2.39,0,0,0,0-3.37h0a2.37,2.37,0,0,0-3.36,0h0L24.39,58.07a13.44,13.44,0,0,0,19,19L55.23,65.23a2.38,2.38,0,0,0,0-3.36h0a2.38,2.38,0,0,0-3.37,0ZM75.53,25.93a13.45,13.45,0,0,0-19,0L44.69,37.77a2.38,2.38,0,0,0,0,3.36h0a2.38,2.38,0,0,0,3.37,0L59.9,29.3A8.67,8.67,0,1,1,72.16,41.56L60.32,53.4a2.39,2.39,0,0,0,3.38,3.37L75.54,44.93a13.45,13.45,0,0,0,0-19ZM48.21,56.75,55,50a2.37,2.37,0,0,0,0-3.36h0a2.38,2.38,0,0,0-3.37,0h0l-6.75,6.74a2.39,2.39,0,0,0,0,3.37,2.42,2.42,0,0,0,1.71.7,2.37,2.37,0,0,0,1.68-.7Z" class="cls-2"/></g></g></svg>