<svg xmlns="http://www.w3.org/2000/svg" xmlns:xlink="http://www.w3.org/1999/xlink" x="0" y="0" version="1.1" viewBox="0 0 100 100" style="enable-background:new 0 0 100 100" xml:space="preserve"><style type="text/css">.st0{fill:url(#SVGID_1_)}.st1{fill:#fff}.st2{opacity:0}</style><metadata><?xpacket begin="﻿" id="W5M0MpCehiHzreSzNTczkc9d"?><?xpacket end="w"?></metadata><g id="图层_1"><g id="图层_2_00000147927214008152091100000003597903514854131594_"><g id="图层_10"><linearGradient id="SVGID_1_" x1="-4.921" x2="104.921" y1="69.987" y2="30.013" gradientUnits="userSpaceOnUse"><stop offset="0" style="stop-color:#86efac"/><stop offset="1" style="stop-color:#22c55e"/></linearGradient><path d="M20,0h60c11,0,20,9,20,20v60c0,11-9,20-20,20H20C9,100,0,91,0,80V20C0,9,9,0,20,0z" class="st0"/><g><polyline points="48.7 30.6 27.9 35.7 27.9 50.8 66.6 40.8 48.7 30.6" class="st1"/><path d="M69.7,40.3l2.1,1.2l0,0L69.7,40.3 M25.9,34.1L25.9,34.1v19.3v-2.1l1-0.3V35.9l-1,0.2V34.1 M51.4,29.8 L50,30.1L68,40.5l1.4-0.4L51.4,29.8" class="st2"/><polyline points="50 30.1 26.9 35.9 26.9 51.1 27.9 50.8 27.9 35.7 48.7 30.6 66.6 40.8 68 40.5 50 30.1" class="st2"/><path d="M32.8,22c-1.7,0-3.4,0.9-4.3,2.5c-0.4,0.8-0.7,1.6-0.7,2.4v6.7L46.3,29l-11.1-6.4 C34.4,22.2,33.6,22,32.8,22" class="st1"/><path d="M36.2,20.9l-0.5,0.9l0,0l12.1,6.9l0.9-0.2l0.4-0.1l2.4,1.4l0.1,0L36.2,20.9L36.2,20.9 M32.8,20 C32.8,20,32.8,20,32.8,20C32.8,20,32.8,20,32.8,20c-2.4,0-4.7,1.3-6,3.5l0,0l0,0c-0.6,1-0.9,2.2-0.9,3.4v7.2l1-0.2v-7 c0-1,0.3-2,0.8-2.9c1.1-1.9,3.1-3,5.1-3c1,0,2,0.2,2.9,0.8l0,0l0.5-0.9C35.1,20.3,34,20,32.8,20" class="st2"/><polyline points="49.1 28.4 48.7 28.5 47.8 28.7 48.9 29.4 26.9 34.9 26.9 33.9 25.9 34.1 25.9 36.2 26.9 35.9 26.9 34.9 48.9 29.5 50 30.1 51.4 29.8 49.1 28.4" class="st2"/><polyline points="48.9 29.5 48.9 29.5 48.4 30.4 48.9 29.5 26.9 34.9 26.9 35.9 50 30.1 48.9 29.5" class="st2"/><path d="M28.6,24.5c0.9-1.6,2.6-2.5,4.3-2.5c0.8,0,1.6,0.2,2.4,0.6L46.3,29l-18.4,4.6v-6.7 C27.9,26.1,28.1,25.3,28.6,24.5 M32.8,21c-2,0-4,1.1-5.1,3c-0.5,0.9-0.8,1.9-0.8,2.9v7l20.9-5.1l-12.1-6.9l0,0l-0.5,0.9l0.5-0.9 C34.8,21.3,33.8,21,32.8,21" class="st2"/><polyline points="47.8 28.7 26.9 33.9 26.9 34.9 48.9 29.4 47.8 28.7" class="st2"/><path d="M64.7,60.2L42,66.6l-14.1,4v2.5c0,2.6,2.1,4.8,4.9,4.8c0,0,0,0,0,0c0.8,0,1.6-0.2,2.4-0.7L64.7,60.2" class="st1"/><path d="M72.6,58L72.5,58l-3.9,1.1l-32.9,19c-0.9,0.5-1.9,0.8-2.9,0.8c-3.3,0-5.9-2.6-5.9-5.8v-2.3l-1,0.3v-1.3v3.3 c0,1.9,0.8,3.6,2,4.8c1.2,1.2,3,2,4.9,2c0,0,0,0,0,0c1.2,0,2.4-0.4,3.4-0.9l0,0L72.6,58 M79.5,54l-1.4,0.4 c-0.3,0.4-0.7,0.7-1.1,1L79.5,54" class="st2"/><path d="M68.6,59.1L42,66.6l22.7-6.4l-29.5,17c-0.8,0.4-1.6,0.7-2.4,0.7c0,0,0,0,0,0c-2.8,0-4.9-2.2-4.9-4.8v-2.5 l-1,0.3v2.3c0,3.2,2.6,5.8,5.9,5.8c1,0,2-0.3,2.9-0.8L68.6,59.1" class="st2"/><path d="M69.1,42.3l-35.9,9.2l-5.3,1.4v15.6l43.8-12.3l3.5-1.9c1.5-0.9,2.4-2.5,2.4-4.2c0-0.8-0.2-1.7-0.7-2.5l0,0 l0,0c-0.4-0.7-1-1.3-1.7-1.7l0,0L69.1,42.3" class="st1"/><polyline points="33.2 51.5 27.9 52.9 27.9 52.9 33.2 51.5" class="st1"/><polyline points="71.7 56.2 27.9 68.5 27.9 68.5 71.7 56.2 71.7 56.2" class="st1"/><path d="M26.9,53.1l-1,0.3V69l1-0.3V53.1 M71.8,41.6l-1.4,0.4l5.3,3.1c0.9,0.5,1.6,1.2,2.1,2.1 c1.6,2.7,0.7,6.3-1.9,7.9l2.2-0.6c1-1.2,1.5-2.8,1.5-4.3c0-1.2-0.3-2.4-0.9-3.5c-0.6-1.1-1.4-1.9-2.5-2.5L71.8,41.6 M69.3,40.1 L69.3,40.1l0.4,0.2L69.3,40.1" class="st2"/><polyline points="66.6 40.8 27.9 50.8 27.9 50.8 66.6 40.8 66.6 40.8" class="st1"/><path d="M26.9,51.1l-1,0.3v2.1l1-0.3v-1V51.1 M69.3,40.1L68,40.5l1.2,0.7l1.2,0.7l1.4-0.4l-2.1-1.2L69.3,40.1" class="st2"/><polyline points="68 40.5 66.6 40.8 66.6 40.8 27.9 50.8 26.9 51.1 26.9 52.1 69.2 41.2 68 40.5" class="st2"/><path d="M77,55.4L72.6,58l3.6-2l0,0C76.5,55.8,76.8,55.6,77,55.4" class="st2"/><polyline points="42 66.6 27.9 70.6 27.9 70.6 42 66.6" class="st1"/><path d="M78.1,54.4L75.9,55c-0.1,0-0.1,0.1-0.2,0.1l-3.6,2L26.9,69.8v-1l-1,0.3v0.8h1h-1v1.3l1-0.3v-1l45.2-12.7 l-3.5,2l3.9-1.1l0.1-0.1l4.4-2.5C77.4,55.1,77.8,54.8,78.1,54.4" class="st2"/><polyline points="72.1 57.1 26.9 69.8 26.9 70.8 27.9 70.6 27.9 70.6 42 66.6 68.6 59.1 72.1 57.1" class="st2"/><path d="M27.9,52.9l-1,0.3v15.6l1-0.3V52.9 M70.4,41.9l-37.2,9.6l35.9-9.2l6.2,3.6l0,0c0.7,0.4,1.3,1,1.7,1.7l0,0 l0,0c0.4,0.8,0.7,1.6,0.7,2.5c0,1.7-0.8,3.3-2.4,4.2l-3.5,1.9l4.1-1.2c2.7-1.6,3.5-5.2,1.9-7.9c-0.5-0.9-1.2-1.6-2.1-2.1 L70.4,41.9" class="st2"/><polyline points="69.2 41.2 69.2 41.2 26.9 52.1 26.9 53.1 27.9 52.9 27.9 52.9 33.2 51.5 70.4 41.9 69.2 41.2" class="st2"/><path d="M75.9,55l-4.1,1.2l0,0L27.9,68.5l-1,0.3v1l45.2-12.7l3.6-2C75.8,55.1,75.8,55,75.9,55" class="st2"/></g></g></g></g></svg>