<?xml version="1.0" encoding="utf-8"?>
<!-- Generator: Adobe Illustrator 26.3.1, SVG Export Plug-In . SVG Version: 6.00 Build 0)  -->
<!DOCTYPE svg PUBLIC "-//W3C//DTD SVG 1.1//EN" "http://www.w3.org/Graphics/SVG/1.1/DTD/svg11.dtd" [
	<!ENTITY ns_extend "http://ns.adobe.com/Extensibility/1.0/">
	<!ENTITY ns_ai "http://ns.adobe.com/AdobeIllustrator/10.0/">
	<!ENTITY ns_graphs "http://ns.adobe.com/Graphs/1.0/">
	<!ENTITY ns_vars "http://ns.adobe.com/Variables/1.0/">
	<!ENTITY ns_imrep "http://ns.adobe.com/ImageReplacement/1.0/">
	<!ENTITY ns_sfw "http://ns.adobe.com/SaveForWeb/1.0/">
	<!ENTITY ns_custom "http://ns.adobe.com/GenericCustomNamespace/1.0/">
	<!ENTITY ns_adobe_xpath "http://ns.adobe.com/XPath/1.0/">
]>
<svg version="1.1" xmlns:x="&ns_extend;" xmlns:i="&ns_ai;" xmlns:graph="&ns_graphs;"
	 xmlns="http://www.w3.org/2000/svg" xmlns:xlink="http://www.w3.org/1999/xlink" x="0px" y="0px" viewBox="0 0 100 100"
	 style="enable-background:new 0 0 100 100;" xml:space="preserve">
<style type="text/css">
	.st0{fill:url(#SVGID_1_);}
	.st1{fill:#FFFFFF;}
	.st2{opacity:0;}
</style>
<metadata><?xpacket begin="﻿" id="W5M0MpCehiHzreSzNTczkc9d"?>
<x:xmpmeta xmlns:x="adobe:ns:meta/" x:xmptk="Adobe XMP Core 7.1-c000 79.cb7c5a1, 2022/04/14-05:22:35        ">
   <rdf:RDF xmlns:rdf="http://www.w3.org/1999/02/22-rdf-syntax-ns#">
      <rdf:Description rdf:about=""
            xmlns:xmp="http://ns.adobe.com/xap/1.0/"
            xmlns:xmpGImg="http://ns.adobe.com/xap/1.0/g/img/"
            xmlns:xmpTPg="http://ns.adobe.com/xap/1.0/t/pg/"
            xmlns:stDim="http://ns.adobe.com/xap/1.0/sType/Dimensions#"
            xmlns:xmpG="http://ns.adobe.com/xap/1.0/g/"
            xmlns:dc="http://purl.org/dc/elements/1.1/"
            xmlns:xmpMM="http://ns.adobe.com/xap/1.0/mm/"
            xmlns:stRef="http://ns.adobe.com/xap/1.0/sType/ResourceRef#"
            xmlns:stEvt="http://ns.adobe.com/xap/1.0/sType/ResourceEvent#"
            xmlns:illustrator="http://ns.adobe.com/illustrator/1.0/">
         <xmp:CreatorTool>Adobe Illustrator 26.3 (Macintosh)</xmp:CreatorTool>
         <xmp:CreateDate>2022-12-30T01:38:37+08:00</xmp:CreateDate>
         <xmp:MetadataDate>2022-12-30T01:38:37+08:00</xmp:MetadataDate>
         <xmp:ModifyDate>2022-12-30T01:38:37+08:00</xmp:ModifyDate>
         <xmp:Thumbnails>
            <rdf:Alt>
               <rdf:li rdf:parseType="Resource">
                  <xmpGImg:width>256</xmpGImg:width>
                  <xmpGImg:height>256</xmpGImg:height>
                  <xmpGImg:format>JPEG</xmpGImg:format>
                  <xmpGImg:image>/9j/4AAQSkZJRgABAgEASABIAAD/7QAsUGhvdG9zaG9wIDMuMAA4QklNA+0AAAAAABAASAAAAAEA&#xA;AQBIAAAAAQAB/+4ADkFkb2JlAGTAAAAAAf/bAIQABgQEBAUEBgUFBgkGBQYJCwgGBggLDAoKCwoK&#xA;DBAMDAwMDAwQDA4PEA8ODBMTFBQTExwbGxscHx8fHx8fHx8fHwEHBwcNDA0YEBAYGhURFRofHx8f&#xA;Hx8fHx8fHx8fHx8fHx8fHx8fHx8fHx8fHx8fHx8fHx8fHx8fHx8fHx8fHx8f/8AAEQgBAAEAAwER&#xA;AAIRAQMRAf/EAaIAAAAHAQEBAQEAAAAAAAAAAAQFAwIGAQAHCAkKCwEAAgIDAQEBAQEAAAAAAAAA&#xA;AQACAwQFBgcICQoLEAACAQMDAgQCBgcDBAIGAnMBAgMRBAAFIRIxQVEGE2EicYEUMpGhBxWxQiPB&#xA;UtHhMxZi8CRygvElQzRTkqKyY3PCNUQnk6OzNhdUZHTD0uIIJoMJChgZhJRFRqS0VtNVKBry4/PE&#xA;1OT0ZXWFlaW1xdXl9WZ2hpamtsbW5vY3R1dnd4eXp7fH1+f3OEhYaHiImKi4yNjo+Ck5SVlpeYmZ&#xA;qbnJ2en5KjpKWmp6ipqqusra6voRAAICAQIDBQUEBQYECAMDbQEAAhEDBCESMUEFURNhIgZxgZEy&#xA;obHwFMHR4SNCFVJicvEzJDRDghaSUyWiY7LCB3PSNeJEgxdUkwgJChgZJjZFGidkdFU38qOzwygp&#xA;0+PzhJSktMTU5PRldYWVpbXF1eX1RlZmdoaWprbG1ub2R1dnd4eXp7fH1+f3OEhYaHiImKi4yNjo&#xA;+DlJWWl5iZmpucnZ6fkqOkpaanqKmqq6ytrq+v/aAAwDAQACEQMRAD8A9U4q7FXYqkWqebtOsyY4&#xA;f9KmHUIaID7t/TKJ6iMeW7r9R2jCGw9RYxe+btauCQsot0P7MQof+CNW/HMWWokXU5e0csute5KJ&#xA;7q6mJM0zyk9S7Fv1nKTInm4cskpcySonIsFpwoWnAq04qtOKFpwKtOKFpxVacCrTiho4qtOBVpxQ&#xA;tOKtHFC04FWnFVpwKtOKGjiqrb319bEG2uJYSOhjdk/URhEiORZxySjyJCe6b+YfmayIDzi7iH7E&#xA;45H/AIMUb8cuhqpjzc3F2pmhzPEPNm+g/mLo2pMsNz/oNy2wEhBjY+z7fiBmbi1cZbHYu503amPJ&#xA;sfSfs+bK8ynZuxV2KuxVZNNFBE0srBI0FWY9AMBNMZSERZ5MF17zPcXxaC3JhtOlBszj/K9vbMDL&#xA;nMthyef1evlk2jtH70hOUOtWnAq04qtOKFpxVo4ELTiq04oWnFVpwKtOKFpwKtOKFuKtHAq04oWn&#xA;FVpxVo4ELTiq04qtOBVpxQ0cCrTiq04qyvyl59vdIdLW9LXOm7AA7vEPFCe3+T92ZODUmGx5Oz0X&#xA;aUsXplvD7nrNrdW91bx3FvIJYJRyjkXcEHNrGQIsPTwmJCxuCq4WTsVYJ5m1xr64NvC3+iRHan7b&#xA;D9r5eGYGfLxGhyed1+r8SXCPpH2pEcx3XLTiq3AhacVWnFC04qtOBC04qtOKrTiho4FWnFC04qtO&#xA;BVpxQtOBWjihacVWnFVpwIWnFWjiq04FWnFC04FWnFWjiq04FZX5C83PpF6LK6f/AHG3LUJJ2ic7&#xA;Bx7fzffmVps/AaPJ2fZut8KXDL6D9j1/Ns9SkvmvUjaaf6MZpNc1QHuE/aP8MozzoV3uv7Rz8EKH&#xA;OTAzmvedWnFC04qtOKGjgVacULTiq04oWnAq04qtOKFpwKtOKGjiq04FWnFC04qtOBVpxQ0cVWnF&#xA;VpwIWnFVpwK0cULTiq04FWnFWjgVacVev/lxr7alov1aZuV1YUjJPVoyP3ZP3EfRm20mXijR5h6n&#xA;svU+Jj4Tzj93RL/NN2bjV5FBqkAEa/Mbt/wxynPK5Ou7QycWU+WyTHKXBWnAq04oWnFVpwIWnFVp&#xA;xQ0cVWnAhacVWnFVpxQtOBVpxQtOBVpxQ1iq04FWnFC04qtOKtHAhacVWnFVpwKtOKGjgVacVWnF&#xA;WjgVkv5d6mbLzPAhNIrwGBx7tun/AA4AzJ0s6n73Ydl5eDMB0lsm91KZbiWU7mR2av8ArGuSkbNs&#xA;MkuKRPeVE4GC04FWnFC04qtwIWnFVpxQtOKrTiho4FWnFVpxQtOBVpxQtOKrTgVacULTirRwKtOK&#xA;FpxVacUNHAq04qtwKtOKFpxVo4FWnFVpwKrWNwba+trkGhglSQH/AFGDfwyUTRBZ45cMge4syOZD&#xA;kNHFVhwIaOKrTihYcUNHAq04qtOKFpxVacCFpxVacULTgVo4oWnFVpwKtOKFpxVacCrTiho4qtOK&#xA;rTgQtOKtHAq04oWnFVpwK0cVWnAq04qzo5lOWtOKrTihacCrTihacVWnAho4qtOKGaeWvKVsLdLz&#xA;UI/VlkHKOBvsqp6ch3JzNw4BVl3ui7PjwiUxZPRk31Oz4en6Efp/ycFp91MyuEO18KNVQY/rPkix&#xA;ugZbGlrP/J/utvo/Z+j7sx8mmB5bOu1PZkJ7w9J+xhGpaVf6dN6V3EYyfst1Vv8AVYbHMGcDHm6L&#xA;NgnjNSFII5FpWnAq04oaOKrTgQtOKrTgVacULcVaxVacCFpxVacVWnArRxQtOBVpxVacVaOBWdHM&#xA;py1pxVacVWnAhacULTiq04oWnAqrZRLLewRNuryIrD2LAYYiyGeKNyA83rObd7F2KuxVTubW3uYW&#xA;huI1libqjCowGIOxYThGQqQsMN1ryCw5TaU3IdTbOd/9gx/j9+YeTS9Yul1PZXXH8mGzwTQStFPG&#xA;0cqbMjggj6DmGQRzdPKJiaIoqRwMFpxVacCrTiho4qtOBVpxQtOKtHFC04FWnFVpwKtOKGjiq04F&#xA;WnFVpwKzs5lOYtOKFpxVacULTgVacULTihacCq+m/wDHStP+M0f/ABIZKH1BswfXH3h6tm2ewdir&#xA;sVQd3rGlWlfrF1HGw6pyBb/gRU5CWSI5loyanHD6pBJbzz/pEVRbxyXDdjTgv3tv/wALlMtVEct3&#xA;CydrYx9IJYzrXmWfWgIfqMQP+62AZ5R7BhT9WY2TMZ7U6vU6059uEfpS9vL+trbtcNZTCJd2JUg0&#xA;8eP2qfRlfhSq6aDpMtXwmktOVuMtOBVpxQtOKtHAq04oWnFVpxVacCGjiq04FWnFVpxQtOBWjiq0&#xA;4FZ0cy3MWnAhacVWnFC04FaOKFhxVrAhVsZEjvbeRzRElRmPgAwJyUTRDPEQJgnvDNLvz1pUVRAk&#xA;lw3Y04L97b/hmbLVRHJ32TtXGOQJSifzvrFy3p2VukZP2QoMr/0/4XKjqZHkHCn2plkaiK+1SOm+&#xA;dNU/vjKsbdRK3pL/AMAKf8RyPBllzY+DqsvO689vsRVr+Xkpobu7C+KRKT/wzU/Vk46TvLdj7HP8&#xA;UvknFr5L0CChaFp2H7UrE/gvFfwy6OngHNx9m4Y9L96cW9pa2y8beFIV8EUKPwy4RA5OZDHGP0gB&#xA;Vws0h1vydpmpcpYx9Wuzv6qD4WP+UvfKMmnjLyLr9T2dDJuPTJgGseXtT0qSlzFWImiTpuh+nt8j&#xA;mBkxSjzdBqNJPEfUNu/olZypxVpxVacCrTihacVaOKrTgQtOKrTirRwKtOKFpwKtOKtHFWdHMpzF&#xA;pwKtOKFpxVacCFpxQtOKrTihUtYVmu4YWJCySKhI60YgYxFmmeOPFIDvL0C18o6Hb0JgMzD9qUlv&#xA;w2X8M2MdPAdHo8fZ2GPS/emkNvbwJwgiSJP5UUKPuGWgAcnMjAR2ApUwsnYq7FXYq7FXYqtkjjkR&#xA;o5FDowoysAQR7g4kIIBFFiOufl9bT8ptLYQS9TbvUxn/AFT1X9XyzEyaUHeLqNT2TE749j3dGCX+&#xA;n3ljOYLuFoZR2YdR4g9CPlmDKBiaLosuKUDUhRQxyLWtOBVpxQtOKtHFC04FWnFVpwKtOKGjiq04&#xA;FWnFWdnMpzFpxVacCFpxVacULTgVacULTihX07/jo2v/ABmj/wCJDJQ+oNuD64+8PVM2r17sVdir&#xA;sVdirsVdirsVdirsVQ9/p1lfwGC7hWaM9Aw3B8VPUH5ZGUBIUWvLhjkFSFhgmu/l9dQcptLY3EQ3&#xA;MDf3g+XZv15g5dKRvF0Wp7KlHeG47urDpI3jdkkUo6mjKwoQR2IOYhDpyCDRWHAhacVWnFWjgQtO&#xA;KrTiq04FWnFDRwKtOKs6OZTmLTirRwIWHFWjihacCrTihacVVtN/46Nr/wAZo/8AiQyUPqDZg+uP&#xA;vD1TNq9e7FXYq7FXYq7FXYq7FXEgAkmgHUnFUsvPM2hWdRNeR8hsUQ+o1fklcqlmiOZcXJrcUOch&#xA;96RXv5kWKVFpayTEGgaQiNfntyOUy1Y6BwcnbER9IJSk+avOOqErYQlEr1giLUHgXfkB+GVePkly&#xA;cT89qcv0D5BbH5G8zajMZ9QlWN2+08zmR6f7Hl+vANNOW5QOzM+Q3M17zaX675M1XSg0oH1m0G5n&#xA;jH2f9deo/VleXTyj5ho1PZ+TFvzj3sfOUOAtOKrTgQtOKtHFVpwKtOKFpwKtOKs7OZTmrTihacCr&#xA;TihacVWnAhacULTiqvp3/HRtf+M0f/EhkofUGzD9cfeHqebV692KuxV2KuxVA3eu6PaV9e7jVl6o&#xA;Dyb/AIFanK5ZYjmXHyarFDnIJHefmDpsdRbQSTsOjNSNT+s/hlMtVHo4OTteA+kE/YlL+b/M+oM0&#xA;en2/AdP3MZkYfMnkPwyo6icuQcQ9oZ8m0B8ha0eWPN+qGt9MUQ70nkJH0IvKn4YPByS5o/JanL9Z&#xA;+Z/QmVn+XFktDeXTyn+WMBB955H9WWx0g6lysfY8R9RJTyz8saDZ0MNnGWH7cg9RvnV60+jLo4YD&#xA;kHOx6LFDlEfemgAAAAoB0GWuU7FXYqxjXvIemajymtaWd2aklR+7Y/5S9vmPxzGy6aMtxsXWarsy&#xA;GTePpl9jznVtIv8ASro215HwelVYbqy+KnvmvnjMTReez4J4pcMggTkGlacCFpxVacCtHFC04qtO&#xA;BWdnMpzVpxQtOKrTgQtxVacULTgVacUK+nf8dG1/4zR/8SGSh9QbMP1x94epZtXr0LdatptpX6xc&#xA;xxkb8SwLf8CN8hLJEcy05NRjh9RASW789aVECLeOS4amxpwWvzbf8Mplqojk4OTtXGPpBKVS+cte&#xA;vGMdhbBCegRGlcfw/wCFyo6iZ5BxJdpZpmoD9Kn+hPOGp73Urxxt1E0nFf8AgFr+rB4eSXNj+V1O&#xA;X6jt5n9COtPy8gFDeXTP4pEAv/DNy/VlkdIOpcjH2QP4pfJOrPytoNrQpaLIw/al/eH7mqPuGXRw&#xA;QHRzsegww5Rv37poqKihUAVR0UCgGWuUBXJvFLsVdirsVdirsVdirHvPWmxXnl+eQgetaD1om7in&#xA;2h9K5j6mFw9zr+08IniJ6x3eSnNW8q0cCFpxVacVWnArRxQtOBWdnMpzVpxQtOKrTgQtOKrTihac&#xA;CrTihuBpUnjaIVlVgYwBU8gdtvnhHPZlEkEEc2Qfo3zjqQ/fyPHGR0kb0138UT+mZHBklzdl4Gqy&#xA;8yQPPb7ETbeQU2N1dE+KxLT/AIZq/qyUdL3luh2R/Ol8k3tPKmh21CLcSsP2pTz/AAPw/hl0cEB0&#xA;czH2fhj0v3prHFFEgSNFRB0VQAPuGWgU5kYgCguwpdirsVdirsVdirsVdirsVdirsVSDzxqEVn5e&#xA;uELfvbkejEvc8vtfctco1M6gfNwO0sohhI6y2eSHNU8otOKGjgVacVWnAq04oWnFWd5kuatOKrTi&#xA;hacCrTiho4qsOBDRxVW07/jo2v8Axmj/AOJDJQ+oNmH64+8PUc2r1zsVdirsVdirsVdirsVdirsV&#xA;dirsVdirsVY3rnnnS9O5RW5+uXQ24ofgU/5T/wABmPk1MY8ty63U9p48ew9UnnWs6zf6tdfWLx6k&#xA;CiRrsiDwUZrsmQzNl57UaieWVyS85BoWnFVpwIWnFWjgVacULTirOzmU5q04FWnFC04qtOBC04qt&#xA;OKFpwKr6d/x0LX/jNH/xIZKH1Bsw/XH3h6hm1eudirsVdirsVdirsVdirsVdiqlc3drbIZLiZIUH&#xA;7TsFH44DIDmwnkjEXI0kd9570G2qI3e5cbUiXb/gm4j7solqYDzcHL2pijy9XuY9ffmPqMlVs7eO&#xA;Bd/icmRv+NR+BzHlqz0Dr8vbEz9IA+1jt9r2s31RdXkkikUKA8UI/wBVaL+GUSyylzLrsuqyT+qR&#xA;S45U0LTihbirWKrTgQtOKrTiq04FaOKGdnMpzVpwKtOKFpxVacCFpxVacVWnAhW07/joWv8Axmj/&#xA;AOJDJQ+oNmD64+8PUM2r1zsVdirsVdirsVcSAKnYDqcVS288yaJZ1Et2hcbFIzzavyWtPpyuWaI6&#xA;uLk1uKHOX6UhvfzEgWos7VnO9HlIUf8AAryr9+Y8tWOgcDJ2wP4Y/NLv0v521cUtUeONtqwp6a7/&#xA;APFjf81ZX4mWfJxvzGqzfTdeW32/tUp/KNzEn1vXNRjtlPUktLIadgNqn5E4DgI3kaYy7PkBxZZC&#xA;P2lIr99MB9OxjkKD/d8zfGfkq0VR865RLh6ODlMOUAfeUCcg0rTiho4qtOBVpxQtOKtHFC04FWnF&#xA;VpwKtOKGdnMpzlpwIaOKrDiho4FWnFC04qtOKFbT/wDjoWv/ABmj/wCJDJQ+oNmH64+8PT82j1zs&#xA;Vdiqjc31naryuZ0hHbmwFflXIykBza55Yw+ogJLeed9HhqIedy3+SOK/e1P1ZTLUxHLdwcnamKPK&#xA;5JNN501u8cxWFsEJGwRTK/6qf8LlJ1MjyDhS7TyzNQH6Sp/oDzdqpreSMkbdRM9B/wAi1r+rB4WS&#xA;XNj+U1OX6jt5n9CY2f5fWSUa7uXlPdIwEX7zyP6ssjpB1Lk4+yIj6jad22iaFpyGVLaKIIKmaTci&#xA;nfm9aZeMcY9HPhpsWMWAB5/2pFrfn2CHlDpiiaTobhh8A/1R1bKMmqA2i4Gp7VA2x7nvYRe313ez&#xA;me6laWU/tMeg8AOgHyzClIyNl0eTLKZuRsoY5FrWnAq04oWnFWjgVacULTiq04qtOBDRxVacCrTi&#xA;rOzmU5q04oWnAq04oWnFVpwIWnFVpxQrWBAv7YnYCVKn/ZDDDmGzD9cfeGe3fmTRraoe4V2H7Mfx&#xA;nb5bZsJZojq9Hk12KHM/JJbvz31Wztans8p7/wCqv9cplqu4ODk7W/mx+aEM/nLVNkEkMTbfCPRU&#xA;D/WNGP35C8smni1WXlYHyVbbyLcyt6l9dAEmrBAXY/7Jqfqwx0pPMs4dlSO85JxaeUNDt6Ewmdx+&#xA;1KS3/Cii/hl8dPAOdj7Owx6X703ihhhQJDGsaDoqAKPuGWgAcnMjERFAUvwski1nzdpunco4z9Zu&#xA;ht6aH4Qf8pv4ZRkzxj5lwNT2hDHsPVJgura9qWqPW5k/dA1WBNkH0d/mcwcmWUuboNRqp5T6jt3d&#xA;EsOVuMtOBWjihacVWnAhacVWnAq04oWnFWjiq04ELTiq04q0cCs7OZTmrTihacCrTihacVWnAq04&#xA;oWnFV0EPrXEcIPH1HVK+HI0xAs0mEeKQHezC08ladHQ3Ejzt3H2F/Df8czY6aI5u9x9lwH1ElObX&#xA;TNPtP957dIz/ADADl/wR3y+MAOQc7HghD6QAick2uxV2KoHVNb07TU5XMnxkVWFd3b5D+JyueQR5&#xA;uPn1UMQ9R+DB9Z83ajf8ooj9WtjtwQ/Ew/ym/gMwsmoMuWwdDqe0Z5Nh6YpAcx3XrTiq04oWnAq0&#xA;4oWnFWjgVacULTiq04FWnFC04q0cVWnAhacVWnArPDmU5q04qtOBC04qtOKFpxVacCFpxVUtHWO7&#xA;gkbZUkRifYMDhiaIZ4zUgfN6fm1eudirsVUrq7trSEzXEixRjqzH9XjglIAWWGTJGAuRoMQ1jzvL&#xA;Jyh01TEnQzsPiP8AqjtmHk1PSLpdT2oTtj282KSySSu0kjF5GNWdiSSfcnMQm3USkSbKmcUNHAha&#xA;cVWnFC04qtOBVpxQtOBVpxQtxVo4FWnFC04qtOKtHAhacVWnFWdnMlzlpxQtOKFpwKtOKFpxVo4E&#xA;LDirRxQy3QPNNv6CWt+/pyRgKkx+ywHTkexzMxZxVF3ej7QjQjPYjqyA39gE5m5i4deXNaffXMjj&#xA;He7PxoVdj5pFq3nO1gBjsAJ5f9+GojH8WyjJqQOTrtR2nGO0Nz9jD72/vL2Uy3UpkftXoPYDoMwp&#xA;TMubpcuaWQ3I2hTkWpacULTiq04oWnArRxVYcUNHAq04oWnFVpwKtOKFpwK0cULTiq04qtOBC04q&#xA;0cVZ2cyXOWnFC04oWnAq04qtOKFpwKtOKFpxVacCFpxQtOKrTiho4FWnFC04FWnChacCrTiq04oW&#xA;nAq04oaOKrTgVacULTiq04FWnFDRxVacVWnAhacVZ/cR+lPJH/IxX7jTMoii7CceGRHcpHAwWnFV&#xA;pxQtOBVpxQtOKrTgQtxVacULTgVacULTiq04ELTiq04oaOKrTgQtOKrTiq04oWnAq04oWnArRxQt&#xA;xVacCrTihacVW4q0cCFSytzc3tvbgVM0iRgf6zAfxyURZAZ448UgO8vSPMNsYdSkYD4ZQJF+nr+O&#xA;ZuaNSdvr8fDkPnulZylw1pxQsOKGjgVacULTiq04ELTiq04oWnAq04oWnFVuBC04qtOKFpxVacUN&#xA;HAq04qtOKFpwKtOKFpxVacCrTihacVaOBVpxQtOKrTihkPkLTjeeY4HIrFagzv8ANdk/4YjL9NC5&#xA;+52HZmLjzA9I7vRvMVgbmz9RBWSCrAeK/tD+OZ+eFj3O91+DjhY5xYgcwXQLTihacVWnAhacVWnF&#xA;C04FWnFDRxVacCFpxVacULTihacCrTiq04oWnFVpwIWnFVpxQtOBWjihacVWnAq04oWnFVpwKtOK&#xA;Gjiq04q9U8gaI2n6R9YmWlxe0kIPURgfAPxr9ObPS4+GN970/Zem8PHZ5y/AZPmS7NiOvaSbSYzR&#xA;D/RpDtT9knt/TMLNj4TY5Og1ul8M8Q+kpQcocBacVWnFC04FWnFC04qtOBC04qtOKFpwKtOKFpxV&#xA;acCGjiq04oWnFVpwIWnFVpxVacULTgVacUNHFVpwIWnFVpwKtOKFuKsm8leV21S7F3cp/uPt2qQR&#xA;tI434fL+bMnT4eI2eTsuztF4suKX0D7XqebN6h2KrZYo5Y2jkUMjCjKehGAi2MoiQo8mJ6voM1oW&#xA;lhBktuterL8/b3zCyYTHccnRarRHHvHeKTnKXAWnFC04FWnFC04qtOBC04qtOKrTgQtOKFpxVacU&#xA;LTgVacULTgVo4ULTgVacVWnFC04FWnFC04qtOBVpxQ0cVWnArJfLHkq71R0ubsNBYbGp2eQf5Fe3&#xA;+VmTh05lueTstF2dLL6pbQ+96bbW0FtAkECCOGMcURdgAM2QAAoPSwgIihsAqYWTsVdirsVSm/8A&#xA;LllckvF+4lPUqPhPzX+mUzwA+Tg59BCe49JSG68uapASVjEyfzRmv4HfMaWCQdXk0GWPS/clstvP&#xA;ESJY2Sn8ykfryoghxJQlHmKUjgYrTihacCrTihacVWnFC04FWnFC04oWnAq04qtOKFpxVacCFpxV&#xA;o4oWnAq04oWnFVpwKqQ2V5cGkEEkpPQIjN+oYREnkyjjlLkCU4sPI3mC7ILwi1jP7cxof+BFW/DL&#xA;o6aZ8nNxdmZp8xwjzZfovkTSbBlluP8ATLgbgyACMH2Tf8a5l49NGPPd2+n7Mx49z6iyXMl2TsVd&#xA;ir//2Q==</xmpGImg:image>
               </rdf:li>
            </rdf:Alt>
         </xmp:Thumbnails>
         <xmpTPg:MaxPageSize rdf:parseType="Resource">
            <stDim:w>100.000000</stDim:w>
            <stDim:h>100.000000</stDim:h>
            <stDim:unit>Pixels</stDim:unit>
         </xmpTPg:MaxPageSize>
         <xmpTPg:NPages>1</xmpTPg:NPages>
         <xmpTPg:HasVisibleTransparency>True</xmpTPg:HasVisibleTransparency>
         <xmpTPg:HasVisibleOverprint>False</xmpTPg:HasVisibleOverprint>
         <xmpTPg:PlateNames>
            <rdf:Seq>
               <rdf:li>Cyan</rdf:li>
               <rdf:li>Magenta</rdf:li>
               <rdf:li>Yellow</rdf:li>
               <rdf:li>Black</rdf:li>
            </rdf:Seq>
         </xmpTPg:PlateNames>
         <xmpTPg:SwatchGroups>
            <rdf:Seq>
               <rdf:li rdf:parseType="Resource">
                  <xmpG:groupName>默认色板组</xmpG:groupName>
                  <xmpG:groupType>0</xmpG:groupType>
               </rdf:li>
            </rdf:Seq>
         </xmpTPg:SwatchGroups>
         <dc:format>image/svg+xml</dc:format>
         <xmpMM:InstanceID>xmp.iid:dde0b167-fb91-4c5d-896e-ad15882d129d</xmpMM:InstanceID>
         <xmpMM:DocumentID>xmp.did:7bfe01f8-877d-4188-b7c2-73a470e145f0</xmpMM:DocumentID>
         <xmpMM:OriginalDocumentID>xmp.did:1da86c6d-f2dd-4c6d-a608-d972fe5bb24e</xmpMM:OriginalDocumentID>
         <xmpMM:DerivedFrom rdf:parseType="Resource">
            <stRef:instanceID>xmp.iid:6f7bedd1-3336-4fb4-b420-ffb38ab202e3</stRef:instanceID>
            <stRef:documentID>xmp.did:6f7bedd1-3336-4fb4-b420-ffb38ab202e3</stRef:documentID>
            <stRef:originalDocumentID>xmp.did:1da86c6d-f2dd-4c6d-a608-d972fe5bb24e</stRef:originalDocumentID>
            <stRef:renditionClass>proof:pdf</stRef:renditionClass>
         </xmpMM:DerivedFrom>
         <xmpMM:History>
            <rdf:Seq>
               <rdf:li rdf:parseType="Resource">
                  <stEvt:action>saved</stEvt:action>
                  <stEvt:instanceID>xmp.iid:b6002d74-9f01-46d0-9d36-e97aaf777d8f</stEvt:instanceID>
                  <stEvt:when>2022-12-30T01:34:48+08:00</stEvt:when>
                  <stEvt:softwareAgent>Adobe Illustrator 26.3 (Macintosh)</stEvt:softwareAgent>
                  <stEvt:changed>/</stEvt:changed>
               </rdf:li>
               <rdf:li rdf:parseType="Resource">
                  <stEvt:action>saved</stEvt:action>
                  <stEvt:instanceID>xmp.iid:7bfe01f8-877d-4188-b7c2-73a470e145f0</stEvt:instanceID>
                  <stEvt:when>2022-12-30T01:38:37+08:00</stEvt:when>
                  <stEvt:softwareAgent>Adobe Illustrator 26.3 (Macintosh)</stEvt:softwareAgent>
                  <stEvt:changed>/</stEvt:changed>
               </rdf:li>
            </rdf:Seq>
         </xmpMM:History>
         <xmpMM:RenditionClass>proof:pdf</xmpMM:RenditionClass>
         <illustrator:CreatorSubTool>Adobe Illustrator</illustrator:CreatorSubTool>
      </rdf:Description>
   </rdf:RDF>
</x:xmpmeta>
                                                                                                    
                                                                                                    
                                                                                                    
                                                                                                    
                                                                                                    
                                                                                                    
                                                                                                    
                                                                                                    
                                                                                                    
                                                                                                    
                                                                                                    
                                                                                                    
                                                                                                    
                                                                                                    
                                                                                                    
                                                                                                    
                                                                                                    
                                                                                                    
                                                                                                    
                                                                                                    
                           
<?xpacket end="w"?>
	</metadata>
<g id="图层_1">
	<g id="图层_2_00000147927214008152091100000003597903514854131594_">
		<g id="图层_10">
			<linearGradient id="SVGID_1_" gradientUnits="userSpaceOnUse" x1="-4.9213" y1="69.9868" x2="104.9213" y2="30.0132">
				<stop  offset="0" style="stop-color:#86EFAC"/>
				<stop  offset="1" style="stop-color:#22C55E"/>
			</linearGradient>
			<path class="st0" d="M20,0h60c11,0,20,9,20,20v60c0,11-9,20-20,20H20C9,100,0,91,0,80V20C0,9,9,0,20,0z"/>
			<g>
				<polyline class="st1" points="48.7,30.6 27.9,35.7 27.9,50.8 66.6,40.8 48.7,30.6 				"/>
				<path class="st2" d="M69.7,40.3l2.1,1.2l0,0L69.7,40.3 M25.9,34.1L25.9,34.1v19.3v-2.1l1-0.3V35.9l-1,0.2V34.1 M51.4,29.8
					L50,30.1L68,40.5l1.4-0.4L51.4,29.8"/>
				<polyline class="st2" points="50,30.1 26.9,35.9 26.9,51.1 27.9,50.8 27.9,35.7 48.7,30.6 66.6,40.8 68,40.5 50,30.1 				"/>
				<path class="st1" d="M32.8,22c-1.7,0-3.4,0.9-4.3,2.5c-0.4,0.8-0.7,1.6-0.7,2.4v6.7L46.3,29l-11.1-6.4
					C34.4,22.2,33.6,22,32.8,22"/>
				<path class="st2" d="M36.2,20.9l-0.5,0.9l0,0l12.1,6.9l0.9-0.2l0.4-0.1l2.4,1.4l0.1,0L36.2,20.9L36.2,20.9 M32.8,20
					C32.8,20,32.8,20,32.8,20C32.8,20,32.8,20,32.8,20c-2.4,0-4.7,1.3-6,3.5l0,0l0,0c-0.6,1-0.9,2.2-0.9,3.4v7.2l1-0.2v-7
					c0-1,0.3-2,0.8-2.9c1.1-1.9,3.1-3,5.1-3c1,0,2,0.2,2.9,0.8l0,0l0.5-0.9C35.1,20.3,34,20,32.8,20"/>
				<polyline class="st2" points="49.1,28.4 48.7,28.5 47.8,28.7 48.9,29.4 26.9,34.9 26.9,33.9 25.9,34.1 25.9,36.2 26.9,35.9 
					26.9,34.9 48.9,29.5 50,30.1 51.4,29.8 49.1,28.4 				"/>
				<polyline class="st2" points="48.9,29.5 48.9,29.5 48.4,30.4 48.9,29.5 26.9,34.9 26.9,35.9 50,30.1 48.9,29.5 				"/>
				<path class="st2" d="M28.6,24.5c0.9-1.6,2.6-2.5,4.3-2.5c0.8,0,1.6,0.2,2.4,0.6L46.3,29l-18.4,4.6v-6.7
					C27.9,26.1,28.1,25.3,28.6,24.5 M32.8,21c-2,0-4,1.1-5.1,3c-0.5,0.9-0.8,1.9-0.8,2.9v7l20.9-5.1l-12.1-6.9l0,0l-0.5,0.9l0.5-0.9
					C34.8,21.3,33.8,21,32.8,21"/>
				<polyline class="st2" points="47.8,28.7 26.9,33.9 26.9,34.9 48.9,29.4 47.8,28.7 				"/>
				<path class="st1" d="M64.7,60.2L42,66.6l-14.1,4v2.5c0,2.6,2.1,4.8,4.9,4.8c0,0,0,0,0,0c0.8,0,1.6-0.2,2.4-0.7L64.7,60.2"/>
				<path class="st2" d="M72.6,58L72.5,58l-3.9,1.1l-32.9,19c-0.9,0.5-1.9,0.8-2.9,0.8c-3.3,0-5.9-2.6-5.9-5.8v-2.3l-1,0.3v-1.3v3.3
					c0,1.9,0.8,3.6,2,4.8c1.2,1.2,3,2,4.9,2c0,0,0,0,0,0c1.2,0,2.4-0.4,3.4-0.9l0,0L72.6,58 M79.5,54l-1.4,0.4
					c-0.3,0.4-0.7,0.7-1.1,1L79.5,54"/>
				<path class="st2" d="M68.6,59.1L42,66.6l22.7-6.4l-29.5,17c-0.8,0.4-1.6,0.7-2.4,0.7c0,0,0,0,0,0c-2.8,0-4.9-2.2-4.9-4.8v-2.5
					l-1,0.3v2.3c0,3.2,2.6,5.8,5.9,5.8c1,0,2-0.3,2.9-0.8L68.6,59.1"/>
				<path class="st1" d="M69.1,42.3l-35.9,9.2l-5.3,1.4v15.6l43.8-12.3l3.5-1.9c1.5-0.9,2.4-2.5,2.4-4.2c0-0.8-0.2-1.7-0.7-2.5l0,0
					l0,0c-0.4-0.7-1-1.3-1.7-1.7l0,0L69.1,42.3"/>
				<polyline class="st1" points="33.2,51.5 27.9,52.9 27.9,52.9 33.2,51.5 				"/>
				<polyline class="st1" points="71.7,56.2 27.9,68.5 27.9,68.5 71.7,56.2 71.7,56.2 				"/>
				<path class="st2" d="M26.9,53.1l-1,0.3V69l1-0.3V53.1 M71.8,41.6l-1.4,0.4l5.3,3.1c0.9,0.5,1.6,1.2,2.1,2.1
					c1.6,2.7,0.7,6.3-1.9,7.9l2.2-0.6c1-1.2,1.5-2.8,1.5-4.3c0-1.2-0.3-2.4-0.9-3.5c-0.6-1.1-1.4-1.9-2.5-2.5L71.8,41.6 M69.3,40.1
					L69.3,40.1l0.4,0.2L69.3,40.1"/>
				<polyline class="st1" points="66.6,40.8 27.9,50.8 27.9,50.8 66.6,40.8 66.6,40.8 				"/>
				<path class="st2" d="M26.9,51.1l-1,0.3v2.1l1-0.3v-1V51.1 M69.3,40.1L68,40.5l1.2,0.7l1.2,0.7l1.4-0.4l-2.1-1.2L69.3,40.1"/>
				<polyline class="st2" points="68,40.5 66.6,40.8 66.6,40.8 27.9,50.8 26.9,51.1 26.9,52.1 69.2,41.2 68,40.5 				"/>
				<path class="st2" d="M77,55.4L72.6,58l3.6-2l0,0C76.5,55.8,76.8,55.6,77,55.4"/>
				<polyline class="st1" points="42,66.6 27.9,70.6 27.9,70.6 42,66.6 				"/>
				<path class="st2" d="M78.1,54.4L75.9,55c-0.1,0-0.1,0.1-0.2,0.1l-3.6,2L26.9,69.8v-1l-1,0.3v0.8h1h-1v1.3l1-0.3v-1l45.2-12.7
					l-3.5,2l3.9-1.1l0.1-0.1l4.4-2.5C77.4,55.1,77.8,54.8,78.1,54.4"/>
				<polyline class="st2" points="72.1,57.1 26.9,69.8 26.9,70.8 27.9,70.6 27.9,70.6 42,66.6 68.6,59.1 72.1,57.1 				"/>
				<path class="st2" d="M27.9,52.9l-1,0.3v15.6l1-0.3V52.9 M70.4,41.9l-37.2,9.6l35.9-9.2l6.2,3.6l0,0c0.7,0.4,1.3,1,1.7,1.7l0,0
					l0,0c0.4,0.8,0.7,1.6,0.7,2.5c0,1.7-0.8,3.3-2.4,4.2l-3.5,1.9l4.1-1.2c2.7-1.6,3.5-5.2,1.9-7.9c-0.5-0.9-1.2-1.6-2.1-2.1
					L70.4,41.9"/>
				<polyline class="st2" points="69.2,41.2 69.2,41.2 26.9,52.1 26.9,53.1 27.9,52.9 27.9,52.9 33.2,51.5 70.4,41.9 69.2,41.2 				
					"/>
				<path class="st2" d="M75.9,55l-4.1,1.2l0,0L27.9,68.5l-1,0.3v1l45.2-12.7l3.6-2C75.8,55.1,75.8,55,75.9,55"/>
			</g>
		</g>
	</g>
</g>
<g id="图层_2">
</g>
</svg>
