<svg xmlns="http://www.w3.org/2000/svg" id="_图层_2" data-name="图层 2" viewBox="0 0 310 310"><defs><clipPath id="clippath"><rect width="310" height="310" class="cls-2" rx="48.202" ry="48.202"/></clipPath><clipPath id="clippath-1"><path d="M50.929 39.857C75.156 24.15 95.695 41.29 139.5 42.071c58.533 1.045 78.026-28.555 106.286-12.178 17.914 10.381 24.66 30.724 29.893 46.5 9.65 29.098 3.484 47.465 3.321 83.036-.215 46.856 20.342 57.94 11.071 85.25-1.592 4.691-9.512 28.023-29.893 36.535-21.781 9.098-34.235-8.572-70.857-9.964-31.952-1.214-32.748 11.847-68.643 13.286-20.156.808-57.788 2.316-80.82-23.25-23.168-25.715-16.251-51.85-14.394-63.107 5.342-32.374 15.5-37.643 17.714-64.215 2.215-26.571-11.07-47.607-7.75-66.428 3.322-18.822 11.67-25.195 15.5-27.679Z" class="cls-2"/></clipPath><clipPath id="clippath-2"><path d="M222.878 142.147 111.304 76.185c-9.066-5.357-22.95-.159-22.95 13.09v131.893c0 11.887 12.902 19.05 22.95 13.091l111.574-65.93c9.953-5.864 9.984-20.318 0-26.182Z" class="cls-2"/></clipPath><style>.cls-1{clip-path:url(#clippath)}.cls-2{fill:none}.cls-2,.cls-3,.cls-4,.cls-5,.cls-6,.cls-7,.cls-8{stroke-width:0}.cls-3{fill:#ff8086}.cls-9{clip-path:url(#clippath-1)}.cls-10{clip-path:url(#clippath-2)}.cls-4{fill:#e8e8e8}.cls-5{fill:#f8d275}.cls-6{fill:#e5646e}.cls-7{fill:#ffe07d}.cls-8{fill:#f8f7f7}</style></defs><g id="_图层_1-2" data-name="图层 1"><g id="_图层_2-2" data-name="图层 2"><rect width="310" height="310" class="cls-5" rx="48.202" ry="48.202"/><g class="cls-1"><rect width="310" height="310" x="8.857" y="-7.75" class="cls-7" rx="48.202" ry="48.202"/></g><path d="M50.929 39.857C75.156 24.15 95.695 41.29 139.5 42.071c58.533 1.045 78.026-28.555 106.286-12.178 17.914 10.381 24.66 30.724 29.893 46.5 9.65 29.098 3.484 47.465 3.321 83.036-.215 46.856 20.342 57.94 11.071 85.25-1.592 4.691-9.512 28.023-29.893 36.535-21.781 9.098-34.235-8.572-70.857-9.964-31.952-1.214-32.748 11.847-68.643 13.286-20.156.808-57.788 2.316-80.82-23.25-23.168-25.715-16.251-51.85-14.394-63.107 5.342-32.374 15.5-37.643 17.714-64.215 2.215-26.571-11.07-47.607-7.75-66.428 3.322-18.822 11.67-25.195 15.5-27.679Z" class="cls-3"/><g class="cls-9"><circle cx="198.554" cy="70.196" r="55.911" class="cls-6"/><circle cx="70.357" cy="218.536" r="25.464" class="cls-6"/><circle cx="245.844" cy="239.022" r="15.978" class="cls-6"/></g><path d="M222.878 142.147 111.304 76.185c-9.066-5.357-22.95-.159-22.95 13.09v131.893c0 11.887 12.902 19.05 22.95 13.091l111.574-65.93c9.953-5.864 9.984-20.318 0-26.182Z" class="cls-4"/><g class="cls-10"><path d="M233.428 129.974 121.853 64.012c-9.065-5.357-22.948-.159-22.948 13.09v131.893c0 11.887 12.9 19.05 22.948 13.091l111.575-65.93c9.953-5.864 9.984-20.318 0-26.182Z" class="cls-8"/></g></g></g></svg>