<?xml version="1.0" encoding="UTF-8"?>
<svg id="_图层_2" data-name="图层 2" xmlns="http://www.w3.org/2000/svg" xmlns:xlink="http://www.w3.org/1999/xlink" viewBox="0 0 310 310">
  <defs>
    <style>
      .cls-1 {
        clip-path: url(#clippath);
      }

      .cls-2 {
        fill: none;
      }

      .cls-2, .cls-3, .cls-4, .cls-5, .cls-6, .cls-7, .cls-8 {
        stroke-width: 0px;
      }

      .cls-3 {
        fill: #ff8086;
      }

      .cls-9 {
        clip-path: url(#clippath-1);
      }

      .cls-10 {
        clip-path: url(#clippath-2);
      }

      .cls-4 {
        fill: #e8e8e8;
      }

      .cls-5 {
        fill: #f8d275;
      }

      .cls-6 {
        fill: #e5646e;
      }

      .cls-7 {
        fill: #ffe07d;
      }

      .cls-8 {
        fill: #f8f7f7;
      }
    </style>
    <clipPath id="clippath">
      <rect class="cls-2" width="310" height="310" rx="48.2017" ry="48.2017"/>
    </clipPath>
    <clipPath id="clippath-1">
      <path class="cls-2" d="M50.9286,39.8571c24.2271-15.7069,44.7662,1.4328,88.5714,2.2143,58.5327,1.0443,78.0255-28.5557,106.2857-12.1786,17.9141,10.3815,24.661,30.7246,29.8929,46.5,9.6505,29.0983,3.4844,47.4648,3.3214,83.0357-.2146,46.8563,20.3419,57.9403,11.0714,85.25-1.5927,4.6918-9.5128,28.0233-29.8929,36.5357-21.7815,9.0978-34.2351-8.5726-70.8571-9.9643-31.9528-1.2142-32.7484,11.847-68.6429,13.2857-20.1566.8079-57.7885,2.3163-80.8214-23.25-23.1669-25.715-16.2505-51.8492-14.3929-63.1071,5.342-32.3739,15.5-37.6429,17.7143-64.2143,2.2143-26.5714-11.0714-47.6071-7.75-66.4286,3.3214-18.8214,11.6694-25.1951,15.5-27.6786Z"/>
    </clipPath>
    <clipPath id="clippath-2">
      <path class="cls-2" d="M222.8777,142.1469l-111.5742-65.9619c-9.0654-5.3568-22.9488-.1585-22.9488,13.0909v131.8921c0,11.8865,12.9008,19.05,22.9488,13.091l111.5742-65.9302c9.9529-5.864,9.9846-20.3179,0-26.1819h0Z"/>
    </clipPath>
  </defs>
  <g id="_图层_1-2" data-name="图层 1">
    <g id="_图层_2-2" data-name="图层 2">
      <rect class="cls-5" width="310" height="310" rx="48.2017" ry="48.2017"/>
      <g class="cls-1">
        <rect class="cls-7" x="8.8571" y="-7.75" width="310" height="310" rx="48.2017" ry="48.2017"/>
      </g>
      <path class="cls-3" d="M50.9286,39.8571c24.2271-15.7069,44.7662,1.4328,88.5714,2.2143,58.5327,1.0443,78.0255-28.5557,106.2857-12.1786,17.9141,10.3815,24.661,30.7246,29.8929,46.5,9.6505,29.0983,3.4844,47.4648,3.3214,83.0357-.2146,46.8563,20.3419,57.9403,11.0714,85.25-1.5927,4.6918-9.5128,28.0233-29.8929,36.5357-21.7815,9.0978-34.2351-8.5726-70.8571-9.9643-31.9528-1.2142-32.7484,11.847-68.6429,13.2857-20.1566.8079-57.7885,2.3163-80.8214-23.25-23.1669-25.715-16.2505-51.8492-14.3929-63.1071,5.342-32.3739,15.5-37.6429,17.7143-64.2143,2.2143-26.5714-11.0714-47.6071-7.75-66.4286,3.3214-18.8214,11.6694-25.1951,15.5-27.6786Z"/>
      <g class="cls-9">
        <circle class="cls-6" cx="198.5536" cy="70.1964" r="55.9107"/>
        <circle class="cls-6" cx="70.3571" cy="218.5357" r="25.4643"/>
        <circle class="cls-6" cx="245.8437" cy="239.0223" r="15.9777"/>
      </g>
      <path class="cls-4" d="M222.8777,142.1469l-111.5742-65.9619c-9.0654-5.3568-22.9488-.1585-22.9488,13.0909v131.8921c0,11.8865,12.9008,19.05,22.9488,13.091l111.5742-65.9302c9.9529-5.864,9.9846-20.3179,0-26.1819h0Z"/>
      <g class="cls-10">
        <path class="cls-8" d="M233.4277,129.9739l-111.5742-65.9619c-9.0654-5.3568-22.9488-.1585-22.9488,13.0909v131.8921c0,11.8865,12.9008,19.05,22.9488,13.091l111.5742-65.9302c9.9529-5.864,9.9846-20.3179,0-26.1819h0Z"/>
      </g>
    </g>
  </g>
</svg>