<svg xmlns="http://www.w3.org/2000/svg" xmlns:xlink="http://www.w3.org/1999/xlink" viewBox="0 0 310 310"><defs><style>.cls-1{fill:none;}.cls-2{fill:#f8d275;}.cls-3{clip-path:url(#clip-path);}.cls-4{fill:#ffe07d;}.cls-5{fill:#ff8086;}.cls-6{clip-path:url(#clip-path-2);}.cls-7{fill:#e5646e;}.cls-8{fill:#e8e8e8;}.cls-9{clip-path:url(#clip-path-3);}.cls-10{fill:#f8f7f7;}</style><clipPath id="clip-path"><rect class="cls-1" width="310" height="310" rx="48.2"/></clipPath><clipPath id="clip-path-2"><path class="cls-1" d="M50.93,39.86c24.23-15.71,44.76,1.43,88.57,2.21,58.53,1,78-28.55,106.29-12.18,17.91,10.38,24.66,30.73,29.89,46.5,9.65,29.1,3.48,47.47,3.32,83-.21,46.85,20.34,57.94,11.07,85.25-1.59,4.69-9.51,28-29.89,36.53-21.78,9.1-34.24-8.57-70.86-10-31.95-1.21-32.75,11.85-68.64,13.29-20.16.8-57.79,2.31-80.82-23.25-23.17-25.72-16.25-51.85-14.4-63.11C30.81,165.8,41,160.54,43.18,134s-11.07-47.6-7.75-66.42S47.1,42.34,50.93,39.86Z"/></clipPath><clipPath id="clip-path-3"><path class="cls-1" d="M237.63,146,100.14,64.67C89,58.07,71.87,64.47,71.87,80.8V243.32a18.72,18.72,0,0,0,28.27,16.13l137.49-81.24a18.73,18.73,0,0,0,0-32.26Z"/></clipPath></defs><g id="图层_2" data-name="图层 2"><g id="图层_1-2" data-name="图层 1"><g id="图层_2-2" data-name="图层 2"><rect class="cls-2" width="310" height="310" rx="48.2"/><g class="cls-3"><rect class="cls-4" x="8.86" y="-7.75" width="310" height="310" rx="48.2"/></g><path class="cls-5" d="M50.93,39.86c24.23-15.71,44.76,1.43,88.57,2.21,58.53,1,78-28.55,106.29-12.18,17.91,10.38,24.66,30.73,29.89,46.5,9.65,29.1,3.48,47.47,3.32,83-.21,46.85,20.34,57.94,11.07,85.25-1.59,4.69-9.51,28-29.89,36.53-21.78,9.1-34.24-8.57-70.86-10-31.95-1.21-32.75,11.85-68.64,13.29-20.16.8-57.79,2.31-80.82-23.25-23.17-25.72-16.25-51.85-14.4-63.11C30.81,165.8,41,160.54,43.18,134s-11.07-47.6-7.75-66.42S47.1,42.34,50.93,39.86Z"/><g class="cls-6"><circle class="cls-7" cx="198.55" cy="70.2" r="55.91"/><circle class="cls-7" cx="70.36" cy="218.54" r="25.46"/><circle class="cls-7" cx="245.84" cy="239.02" r="15.98"/></g><path class="cls-8" d="M237.63,146,100.14,64.67C89,58.07,71.87,64.47,71.87,80.8V243.32a18.72,18.72,0,0,0,28.27,16.13l137.49-81.24a18.73,18.73,0,0,0,0-32.26Z"/><g class="cls-9"><path class="cls-10" d="M250.63,131,113.14,49.67c-11.17-6.6-28.27-.2-28.27,16.13V228.32a18.72,18.72,0,0,0,28.27,16.13l137.49-81.24a18.73,18.73,0,0,0,0-32.26Z"/></g></g></g></g></svg>